<?xml version="1.0" encoding="utf-8"?>
<!-- Generator: Adobe Illustrator 16.0.0, SVG Export Plug-In . SVG Version: 6.00 Build 0)  -->
<!DOCTYPE svg PUBLIC "-//W3C//DTD SVG 1.1//EN" "http://www.w3.org/Graphics/SVG/1.1/DTD/svg11.dtd">
<svg version="1.1" id="Layer_1" xmlns="http://www.w3.org/2000/svg" xmlns:xlink="http://www.w3.org/1999/xlink" x="0px" y="0px"
	 width="50px" height="50px" viewBox="0 0 50 50" enable-background="new 0 0 50 50" xml:space="preserve">
<path fill="#FF5000" d="M18.371,41.509c-0.868,0-1.684-0.338-2.297-0.952c-1.268-1.267-1.267-3.329,0-4.598L27.033,25L16.072,14.041
	c-1.267-1.267-1.267-3.33,0-4.598c0.614-0.614,1.431-0.952,2.299-0.952s1.684,0.338,2.296,0.951l13.26,13.26
	c0.08,0.08,0.152,0.159,0.219,0.242c0.476,0.583,0.733,1.31,0.733,2.056c0,0.867-0.338,1.684-0.952,2.298L20.67,40.557
	C20.055,41.171,19.239,41.509,18.371,41.509L18.371,41.509z"/>
</svg>
