<?xml version="1.0" encoding="utf-8"?>
<!-- Generator: Adobe Illustrator 16.0.0, SVG Export Plug-In . SVG Version: 6.00 Build 0)  -->
<!DOCTYPE svg PUBLIC "-//W3C//DTD SVG 1.1//EN" "http://www.w3.org/Graphics/SVG/1.1/DTD/svg11.dtd">
<svg version="1.1" id="Layer_1" xmlns="http://www.w3.org/2000/svg" xmlns:xlink="http://www.w3.org/1999/xlink" x="0px" y="0px"
	 width="50px" height="50px" viewBox="0 0 50 50" enable-background="new 0 0 50 50" xml:space="preserve">
<path fill="#142328" d="M31.63,41.509c0.867,0,1.685-0.338,2.298-0.951c1.268-1.267,1.266-3.328,0-4.599L22.967,25l10.96-10.959
	c1.271-1.267,1.27-3.33,0-4.598c-0.613-0.613-1.432-0.951-2.298-0.951c-0.87,0-1.685,0.338-2.298,0.95l-13.26,13.261
	c-0.08,0.081-0.152,0.159-0.22,0.241c-0.476,0.583-0.732,1.311-0.732,2.057c0,0.867,0.338,1.684,0.952,2.297L29.33,40.558
	C29.945,41.171,30.763,41.509,31.63,41.509L31.63,41.509z"/>
</svg>
