<?xml version="1.0" encoding="utf-8"?>
<!-- Generator: Adobe Illustrator 16.0.0, SVG Export Plug-In . SVG Version: 6.00 Build 0)  -->
<!DOCTYPE svg PUBLIC "-//W3C//DTD SVG 1.1//EN" "http://www.w3.org/Graphics/SVG/1.1/DTD/svg11.dtd">
<svg version="1.1" id="Layer_1" xmlns="http://www.w3.org/2000/svg" xmlns:xlink="http://www.w3.org/1999/xlink" x="0px" y="0px"
	 width="50px" height="50px" viewBox="-10 -10 50 50" enable-background="new -10 -10 50 50" xml:space="preserve">
<path fill="#FF5000" d="M26.478,11.056c-0.133-0.164-0.276-0.322-0.429-0.475L21.63,6.162l0,0l-8.84-8.84
	c-2.439-2.441-6.397-2.441-8.839,0c-2.441,2.442-2.441,6.398,0,8.84L12.79,15l-8.839,8.839c-2.441,2.443-2.441,6.397,0,8.839
	s6.399,2.441,8.84,0l8.839-8.839l0,0l4.419-4.42C27.27,18.198,27.88,16.6,27.88,15C27.88,13.601,27.412,12.201,26.478,11.056z"/>
</svg>
