<?xml version="1.0" encoding="utf-8"?>
<!-- Generator: Adobe Illustrator 16.0.0, SVG Export Plug-In . SVG Version: 6.00 Build 0)  -->
<!DOCTYPE svg PUBLIC "-//W3C//DTD SVG 1.1//EN" "http://www.w3.org/Graphics/SVG/1.1/DTD/svg11.dtd">
<svg version="1.1" id="Layer_1" xmlns="http://www.w3.org/2000/svg" xmlns:xlink="http://www.w3.org/1999/xlink" x="0px" y="0px"
	 width="50px" height="50px" viewBox="0 0 50 50" enable-background="new 0 0 50 50" xml:space="preserve">
<path fill="#FF5000" d="M31.631,41.509c0.869,0,1.685-0.338,2.298-0.952c1.268-1.267,1.267-3.329,0-4.598L22.969,25L33.93,14.041
	c1.268-1.267,1.267-3.33,0-4.598c-0.614-0.614-1.432-0.952-2.299-0.952c-0.869,0-1.684,0.338-2.297,0.951l-13.26,13.26
	c-0.08,0.08-0.152,0.159-0.219,0.242c-0.476,0.583-0.733,1.31-0.733,2.056c0,0.867,0.338,1.684,0.952,2.298l13.258,13.259
	C29.947,41.171,30.764,41.509,31.631,41.509L31.631,41.509z"/>
</svg>
