<?xml version="1.0" encoding="utf-8"?>
<!-- Generator: Adobe Illustrator 16.0.0, SVG Export Plug-In . SVG Version: 6.00 Build 0)  -->
<!DOCTYPE svg PUBLIC "-//W3C//DTD SVG 1.1//EN" "http://www.w3.org/Graphics/SVG/1.1/DTD/svg11.dtd">
<svg version="1.1" id="Layer_1" xmlns="http://www.w3.org/2000/svg" xmlns:xlink="http://www.w3.org/1999/xlink" x="0px" y="0px"
	 width="25.76px" height="39.018px" viewBox="2.12 5.491 25.76 39.018" enable-background="new 2.12 5.491 25.76 39.018"
	 xml:space="preserve">
<path fill="#FF5000" d="M26.478,21.055c-0.133-0.164-0.276-0.322-0.429-0.475l-4.419-4.419l0,0l-8.84-8.839
	c-2.439-2.441-6.396-2.441-8.838,0c-2.441,2.442-2.441,6.398,0,8.839L12.79,25l-8.839,8.839c-2.441,2.443-2.441,6.397,0,8.839
	c2.442,2.441,6.399,2.441,8.839,0l8.839-8.839l0,0l4.419-4.42C27.27,28.198,27.88,26.6,27.88,25
	C27.88,23.601,27.412,22.201,26.478,21.055z"/>
</svg>
