<?xml version="1.0" encoding="utf-8"?>
<!-- Generator: Adobe Illustrator 16.0.0, SVG Export Plug-In . SVG Version: 6.00 Build 0)  -->
<!DOCTYPE svg PUBLIC "-//W3C//DTD SVG 1.1//EN" "http://www.w3.org/Graphics/SVG/1.1/DTD/svg11.dtd">
<svg version="1.1" id="Layer_1" xmlns="http://www.w3.org/2000/svg" xmlns:xlink="http://www.w3.org/1999/xlink" x="0px" y="0px"
	 width="50px" height="100px" viewBox="0 0 50 100" enable-background="new 0 0 50 100" xml:space="preserve">
<g>
	<g>
		<g>
			<path fill="#FFFFFF" d="M43.75,43.371H6.25c-3.452,0-6.25-2.798-6.25-6.25s2.798-6.25,6.25-6.25h37.5
				c3.452,0,6.25,2.798,6.25,6.25S47.202,43.371,43.75,43.371z"/>
		</g>
		<g>
			<path fill="#FFFFFF" d="M43.75,18.371H6.25c-3.452,0-6.25-2.798-6.25-6.25s2.798-6.25,6.25-6.25h37.5
				c3.452,0,6.25,2.798,6.25,6.25S47.202,18.371,43.75,18.371z"/>
		</g>
	</g>
	<g>
		<g>
			<g>
				<path fill="#FFFFFF" d="M42.678,65.781L16.161,92.298c-2.441,2.441-6.398,2.441-8.839,0c-2.441-2.441-2.441-6.396,0-8.839
					l26.517-26.518c2.44-2.44,6.397-2.44,8.839,0C45.119,59.384,45.119,63.341,42.678,65.781z"/>
			</g>
		</g>
		<g>
			<g>
				<path fill="#FFFFFF" d="M16.161,56.941l26.517,26.518c2.441,2.44,2.441,6.397,0,8.839c-2.441,2.442-6.396,2.441-8.839,0
					L7.322,65.781c-2.441-2.44-2.441-6.396,0-8.84C9.763,54.501,13.72,54.501,16.161,56.941z"/>
			</g>
		</g>
	</g>
</g>
</svg>
