<?xml version="1.0" encoding="utf-8"?>
<!-- Generator: Adobe Illustrator 16.0.0, SVG Export Plug-In . SVG Version: 6.00 Build 0)  -->
<!DOCTYPE svg PUBLIC "-//W3C//DTD SVG 1.1//EN" "http://www.w3.org/Graphics/SVG/1.1/DTD/svg11.dtd">
<svg version="1.1" id="Layer_1" xmlns="http://www.w3.org/2000/svg" xmlns:xlink="http://www.w3.org/1999/xlink" x="0px" y="0px"
	 width="50px" height="50px" viewBox="0 0 50 50" enable-background="new 0 0 50 50" xml:space="preserve">
<g>
	<g>
		<path fill="#142328" d="M27.499,25.042c0,0.644-0.246,1.284-0.737,1.776L4.286,49.294c-0.981,0.981-2.571,0.979-3.552,0
			s-0.981-2.571,0-3.553l20.7-20.699L0.707,4.315c-0.98-0.98-0.98-2.572,0-3.552s2.571-0.981,3.552,0L26.76,23.265
			C27.252,23.756,27.498,24.397,27.499,25.042z"/>
	</g>
	<g>
		<path fill="#142328" d="M23.24,23.236L45.741,0.734c0.979-0.98,2.569-0.979,3.553,0c0.979,0.982,0.979,2.573-0.002,3.554
			L28.566,25.013l20.699,20.7c0.979,0.98,0.979,2.571,0,3.553c-0.98,0.979-2.57,0.981-3.554,0L23.238,26.789
			c-0.492-0.491-0.737-1.133-0.737-1.776C22.502,24.368,22.748,23.728,23.24,23.236z"/>
	</g>
</g>
</svg>
