<?xml version="1.0" encoding="utf-8"?>
<!-- Generator: Adobe Illustrator 16.0.0, SVG Export Plug-In . SVG Version: 6.00 Build 0)  -->
<!DOCTYPE svg PUBLIC "-//W3C//DTD SVG 1.1//EN" "http://www.w3.org/Graphics/SVG/1.1/DTD/svg11.dtd">
<svg version="1.1" id="Layer_1" xmlns="http://www.w3.org/2000/svg" xmlns:xlink="http://www.w3.org/1999/xlink" x="0px" y="0px"
	 width="50px" height="50px" viewBox="0 0 50 50" enable-background="new 0 0 50 50" xml:space="preserve">
<path fill="#142328" d="M36.327,25l11.326-11.327c3.129-3.128,3.129-8.199,0-11.327c-3.128-3.128-8.199-3.128-11.326,0L25,13.673
	L13.674,2.346c-3.129-3.128-8.199-3.128-11.328,0c-3.128,3.129-3.128,8.198,0,11.327L13.672,25L2.346,36.327
	c-3.128,3.131-3.128,8.198,0,11.326c3.129,3.129,8.199,3.129,11.328,0L25,36.327l11.327,11.326c3.131,3.129,8.198,3.13,11.326,0
	c3.129-3.128,3.129-8.199,0-11.326L36.327,25z"/>
</svg>
