<?xml version="1.0" encoding="utf-8"?>
<!-- Generator: Adobe Illustrator 16.0.0, SVG Export Plug-In . SVG Version: 6.00 Build 0)  -->
<!DOCTYPE svg PUBLIC "-//W3C//DTD SVG 1.1//EN" "http://www.w3.org/Graphics/SVG/1.1/DTD/svg11.dtd">
<svg version="1.1" id="Layer_1" xmlns="http://www.w3.org/2000/svg" xmlns:xlink="http://www.w3.org/1999/xlink" x="0px" y="0px"
	 width="50px" height="50px" viewBox="0 0 50 50" enable-background="new 0 0 50 50" xml:space="preserve">
<g>
	<g>
		<path fill="#FF5000" d="M42.678,16.161L16.161,42.678c-2.441,2.441-6.398,2.441-8.839,0c-2.441-2.441-2.441-6.396,0-8.839
			L33.839,7.322c2.44-2.441,6.397-2.441,8.839,0C45.119,9.763,45.119,13.72,42.678,16.161z"/>
	</g>
</g>
<g>
	<g>
		<path fill="#FF5000" d="M16.161,7.322l26.517,26.517c2.441,2.44,2.441,6.397,0,8.839c-2.441,2.442-6.396,2.441-8.839,0
			L7.322,16.161c-2.441-2.441-2.441-6.397,0-8.839C9.763,4.881,13.72,4.881,16.161,7.322z"/>
	</g>
</g>
</svg>
