<?xml version="1.0" encoding="utf-8"?>
<!-- Generator: Adobe Illustrator 16.0.0, SVG Export Plug-In . SVG Version: 6.00 Build 0)  -->
<!DOCTYPE svg PUBLIC "-//W3C//DTD SVG 1.1//EN" "http://www.w3.org/Graphics/SVG/1.1/DTD/svg11.dtd">
<svg version="1.1" id="Layer_1" xmlns="http://www.w3.org/2000/svg" xmlns:xlink="http://www.w3.org/1999/xlink" x="0px" y="0px"
	 width="50px" height="100px" viewBox="0 0 50 100" enable-background="new 0 0 50 100" xml:space="preserve">
<g>
	<path d="M24.987,38.764c-0.644,0-1.285-0.246-1.776-0.736L0.735,15.551c-0.981-0.981-0.981-2.571,0-3.552s2.571-0.981,3.552,0
		l20.7,20.7l20.726-20.727c0.98-0.981,2.571-0.981,3.553,0c0.98,0.981,0.98,2.571,0,3.552L26.764,38.025
		C26.271,38.518,25.631,38.764,24.987,38.764z"/>
</g>
<g>
	<path d="M25.013,61.236c0.644,0,1.285,0.246,1.776,0.736L49.266,84.45c0.98,0.979,0.98,2.569,0,3.551
		c-0.979,0.981-2.57,0.981-3.553,0l-20.7-20.699L4.287,88.027c-0.98,0.979-2.571,0.979-3.553,0c-0.98-0.979-0.98-2.569,0-3.551
		l22.502-22.502C23.729,61.482,24.369,61.236,25.013,61.236z"/>
</g>
</svg>
