<?xml version="1.0" encoding="utf-8"?>
<!-- Generator: Adobe Illustrator 16.0.0, SVG Export Plug-In . SVG Version: 6.00 Build 0)  -->
<!DOCTYPE svg PUBLIC "-//W3C//DTD SVG 1.1//EN" "http://www.w3.org/Graphics/SVG/1.1/DTD/svg11.dtd">
<svg version="1.1" id="Layer_1" xmlns="http://www.w3.org/2000/svg" xmlns:xlink="http://www.w3.org/1999/xlink" x="0px" y="0px"
	 width="50px" height="100px" viewBox="0 0 50 100" enable-background="new 0 0 50 100" xml:space="preserve">
<path fill="#FFFFFF" d="M48.834,11.694c-1.554-1.555-4.073-1.555-5.627,0L25,29.9L6.793,11.694c-1.554-1.555-4.073-1.555-5.627,0
	c-1.555,1.554-1.555,4.073,0,5.628L22.153,38.31c0.786,0.785,1.817,1.17,2.847,1.162c1.029,0.008,2.061-0.377,2.847-1.162
	l20.987-20.987C50.389,15.768,50.389,13.248,48.834,11.694z"/>
<path fill="#FFFFFF" d="M1.166,88.306c1.554,1.555,4.073,1.555,5.627,0L25,70.1l18.207,18.206c1.554,1.555,4.073,1.555,5.627,0
	c1.555-1.554,1.555-4.073,0-5.628L27.847,61.69c-0.785-0.785-1.817-1.17-2.847-1.162c-1.029-0.008-2.061,0.377-2.847,1.162
	L1.166,82.678C-0.389,84.232-0.389,86.752,1.166,88.306z"/>
</svg>
