<?xml version="1.0" encoding="utf-8"?>
<!-- Generator: Adobe Illustrator 16.0.0, SVG Export Plug-In . SVG Version: 6.00 Build 0)  -->
<!DOCTYPE svg PUBLIC "-//W3C//DTD SVG 1.1//EN" "http://www.w3.org/Graphics/SVG/1.1/DTD/svg11.dtd">
<svg version="1.1" id="Layer_1" xmlns="http://www.w3.org/2000/svg" xmlns:xlink="http://www.w3.org/1999/xlink" x="0px" y="0px"
	 width="50px" height="50px" viewBox="0 0 50 50" enable-background="new 0 0 50 50" xml:space="preserve">
<path id="White_2_" fill="#142328" d="M47.241,0H2.76C1.235,0,0,1.235,0,2.76v44.48C0,48.764,1.235,50,2.76,50h23.947V30.637H20.19
	v-7.546h6.516v-5.565c0-6.458,3.944-9.975,9.705-9.975c2.76,0,5.132,0.206,5.823,0.297v6.749L38.239,14.6
	c-3.133,0-3.74,1.489-3.74,3.673v4.818h7.473l-0.973,7.546h-6.5V50h12.742c1.523,0,2.76-1.236,2.76-2.76V2.76
	C50,1.235,48.764,0,47.241,0z"/>
</svg>
