<?xml version="1.0" encoding="utf-8"?>
<!-- Generator: Adobe Illustrator 16.0.0, SVG Export Plug-In . SVG Version: 6.00 Build 0)  -->
<!DOCTYPE svg PUBLIC "-//W3C//DTD SVG 1.1//EN" "http://www.w3.org/Graphics/SVG/1.1/DTD/svg11.dtd">
<svg version="1.1" id="Layer_1" xmlns="http://www.w3.org/2000/svg" xmlns:xlink="http://www.w3.org/1999/xlink" x="0px" y="0px"
	 width="50px" height="200px" viewBox="0 0 50 200" enable-background="new 0 0 50 200" xml:space="preserve">
<g>
	<g>
		<g>
			<g>
				<path fill="#142328" d="M18.75,42.75V6.25C18.749,2.798,21.547,0,25,0c3.451-0.001,6.248,2.796,6.25,6.25v36.5
					c0,3.452-2.797,6.25-6.25,6.25S18.749,46.202,18.75,42.75z"/>
			</g>
		</g>
		<g>
			<g>
				<path fill="#142328" d="M43.75,31.25H6.25C2.799,31.251,0,28.453,0,25c-0.002-3.454,2.795-6.249,6.25-6.25h37.5
					C47.201,18.749,50,21.546,50,25C50,28.452,47.201,31.25,43.75,31.25z"/>
			</g>
		</g>
	</g>
</g>
<g>
	<g>
		<g>
			<g>
				<path fill="#142328" d="M33.84,92.677L7.323,66.16c-2.442-2.44-2.442-6.397,0-8.839c2.438-2.441,6.395-2.441,8.839,0
					L42.68,83.838c2.439,2.441,2.44,6.397,0,8.839C40.236,95.118,36.279,95.118,33.84,92.677z"/>
			</g>
		</g>
		<g>
			<g>
				<path fill="#142328" d="M42.68,66.16L16.162,92.677c-2.439,2.44-6.396,2.441-8.839,0c-2.444-2.441-2.442-6.396,0-8.839
					L33.84,57.321c2.439-2.441,6.396-2.442,8.84,0C45.119,59.762,45.118,63.72,42.68,66.16z"/>
			</g>
		</g>
	</g>
</g>
<g>
	<g>
		<g>
			<g>
				<path fill="#142328" d="M22.687,120.33l18.208,18.208c2.443,2.438,2.442,6.396,0,8.838c-2.439,2.44-6.396,2.44-8.84-0.001
					l-18.207-18.206c-2.441-2.44-2.441-6.399,0-8.839C16.292,117.887,20.249,117.889,22.687,120.33z"/>
			</g>
		</g>
		<g>
			<g>
				<path fill="#142328" d="M13.848,120.33l18.208-18.209c2.439-2.44,6.397-2.439,8.839,0c2.445,2.441,2.443,6.396,0,8.84
					l-18.208,18.208c-2.438,2.441-6.396,2.442-8.839,0C11.409,126.729,11.41,122.77,13.848,120.33z"/>
			</g>
		</g>
	</g>
</g>
<g>
	<g>
		<g>
			<g>
				<path fill="#142328" d="M27.316,179.169L9.107,160.962c-2.442-2.438-2.442-6.396,0.001-8.838
					c2.438-2.439,6.395-2.44,8.838-0.001l18.208,18.207c2.439,2.442,2.441,6.398,0,8.839
					C33.71,181.611,29.754,181.611,27.316,179.169z"/>
			</g>
		</g>
		<g>
			<g>
				<path fill="#142328" d="M36.155,179.169l-18.209,18.21c-2.438,2.439-6.397,2.439-8.839,0c-2.445-2.441-2.442-6.396,0-8.84
					l18.209-18.209c2.438-2.44,6.395-2.443,8.839,0C38.594,172.77,38.593,176.729,36.155,179.169z"/>
			</g>
		</g>
	</g>
</g>
</svg>
