<?xml version="1.0" encoding="utf-8"?>
<!-- Generator: Adobe Illustrator 16.0.0, SVG Export Plug-In . SVG Version: 6.00 Build 0)  -->
<!DOCTYPE svg PUBLIC "-//W3C//DTD SVG 1.1//EN" "http://www.w3.org/Graphics/SVG/1.1/DTD/svg11.dtd">
<svg version="1.1" id="Layer_1" xmlns="http://www.w3.org/2000/svg" xmlns:xlink="http://www.w3.org/1999/xlink" x="0px" y="0px"
	 width="50px" height="100px" viewBox="0 0 50 100" enable-background="new 0 0 50 100" xml:space="preserve">
<path fill-rule="evenodd" clip-rule="evenodd" fill="#142328" d="M44.157,21.116h-4.345c0.316,1.229,0.503,2.513,0.503,3.841
	c0,8.483-6.876,15.359-15.357,15.359c-8.482,0-15.358-6.876-15.358-15.359c0-1.328,0.188-2.612,0.504-3.841H5.758v21.12
	c0,1.059,0.86,1.918,1.922,1.918h34.555c1.062,0,1.922-0.859,1.922-1.918V21.116z M44.157,7.678c0-1.06-0.859-1.919-1.922-1.919
	h-5.758c-1.061,0-1.92,0.86-1.92,1.919v5.761c0,1.06,0.859,1.919,1.92,1.919h5.758c1.062,0,1.922-0.86,1.922-1.919V7.678z
	 M24.958,15.358c-5.302,0-9.599,4.297-9.599,9.599c0,5.301,4.297,9.6,9.599,9.6s9.6-4.299,9.6-9.6
	C34.557,19.655,30.259,15.358,24.958,15.358 M44.157,49.915H5.758C2.579,49.915,0,47.336,0,44.153V5.758C0,2.578,2.579,0,5.758,0
	h38.398c3.181,0,5.759,2.578,5.759,5.758v38.395C49.916,47.336,47.337,49.915,44.157,49.915"/>
<path fill-rule="evenodd" clip-rule="evenodd" fill="#FF5000" d="M44.157,71.115h-4.345c0.316,1.229,0.503,2.514,0.503,3.841
	c0,8.483-6.876,15.358-15.357,15.358c-8.482,0-15.358-6.875-15.358-15.358c0-1.327,0.188-2.612,0.504-3.841H5.758v21.119
	c0,1.059,0.86,1.918,1.922,1.918h34.555c1.062,0,1.922-0.859,1.922-1.918V71.115z M44.157,57.678c0-1.061-0.859-1.92-1.922-1.92
	h-5.758c-1.061,0-1.92,0.859-1.92,1.92v5.76c0,1.061,0.859,1.92,1.92,1.92h5.758c1.062,0,1.922-0.859,1.922-1.92V57.678z
	 M24.958,65.357c-5.302,0-9.599,4.297-9.599,9.599s4.297,9.601,9.599,9.601s9.6-4.299,9.6-9.601S30.259,65.357,24.958,65.357
	 M44.157,99.914H5.758C2.579,99.914,0,97.336,0,94.152V55.758C0,52.578,2.579,50,5.758,50h38.398c3.181,0,5.759,2.579,5.759,5.758
	v38.395C49.916,97.336,47.337,99.914,44.157,99.914"/>
</svg>
