<?xml version="1.0" encoding="UTF-8"?>
<svg xmlns="http://www.w3.org/2000/svg" version="1.1" viewBox="0 0 50 50">
  <defs>
    <style>
      .cls-1 {
        fill: #ff5000;
      }
    </style>
  </defs>
  <!-- Generator: Adobe Illustrator 28.7.1, SVG Export Plug-In . SVG Version: 1.2.0 Build 142)  -->
  <g>
    <g id="Layer_1">
      <path class="cls-1" d="M25.2,0c-6.8,0-7.7,0-10.4.2-2.7.1-4.5.5-6.1,1.2-1.7.6-3.1,1.5-4.5,2.9-1.4,1.4-2.3,2.8-2.9,4.5-.6,1.6-1,3.4-1.2,6.1-.1,2.7-.2,3.5-.2,10.4s0,7.7.2,10.4c.1,2.7.5,4.5,1.2,6.1.6,1.7,1.5,3.1,2.9,4.5,1.4,1.4,2.8,2.3,4.5,2.9,1.6.6,3.4,1,6.1,1.2,2.7.1,3.5.2,10.4.2s7.7,0,10.4-.2c2.7-.1,4.5-.5,6.1-1.2,1.7-.6,3.1-1.5,4.4-2.9,1.4-1.4,2.3-2.8,2.9-4.5.6-1.6,1-3.4,1.2-6.1.1-2.7.2-3.5.2-10.4s0-7.7-.2-10.4c-.1-2.7-.5-4.5-1.2-6.1-.6-1.7-1.5-3.1-2.9-4.5-1.4-1.4-2.8-2.3-4.5-2.9-1.6-.6-3.4-1-6.1-1.2-2.7-.1-3.5-.2-10.4-.2h0ZM22.9,4.6c.7,0,1.4,0,2.3,0,6.7,0,7.5,0,10.2.1,2.5.1,3.8.5,4.7.9,1.2.5,2,1,2.9,1.9.9.9,1.4,1.7,1.9,2.9.3.9.8,2.2.9,4.7.1,2.6.1,3.4.1,10.2s0,7.5-.1,10.2c-.1,2.5-.5,3.8-.9,4.7-.5,1.2-1,2-1.9,2.9-.9.9-1.7,1.4-2.9,1.9-.9.3-2.2.8-4.7.9-2.6.1-3.4.1-10.2.1s-7.5,0-10.2-.1c-2.5-.1-3.8-.5-4.7-.9-1.2-.5-2-1-2.9-1.9-.9-.9-1.4-1.7-1.9-2.9-.3-.9-.8-2.2-.9-4.7-.1-2.6-.1-3.4-.1-10.2s0-7.5.1-10.2c.1-2.5.5-3.8.9-4.7.5-1.2,1-2,1.9-2.9.9-.9,1.7-1.4,2.9-1.9.9-.3,2.2-.8,4.7-.9,2.3-.1,3.2-.1,7.9-.1h0ZM38.6,8.8c-1.7,0-3,1.3-3,3s1.4,3,3,3,3-1.4,3-3-1.4-3-3-3h0ZM25.2,12.3c-7.1,0-12.9,5.8-12.9,12.9s5.8,12.9,12.9,12.9c7.1,0,12.9-5.8,12.9-12.9s-5.8-12.9-12.9-12.9h0ZM25.2,16.8c4.6,0,8.4,3.8,8.4,8.4s-3.8,8.4-8.4,8.4-8.4-3.8-8.4-8.4,3.8-8.4,8.4-8.4Z"/>
    </g>
  </g>
</svg>