<?xml version="1.0" encoding="utf-8"?>
<!-- Generator: Adobe Illustrator 16.0.0, SVG Export Plug-In . SVG Version: 6.00 Build 0)  -->
<!DOCTYPE svg PUBLIC "-//W3C//DTD SVG 1.1//EN" "http://www.w3.org/Graphics/SVG/1.1/DTD/svg11.dtd">
<svg version="1.1" id="Layer_1" xmlns="http://www.w3.org/2000/svg" xmlns:xlink="http://www.w3.org/1999/xlink" x="0px" y="0px"
	 width="50px" height="50px" viewBox="0 25 50 50" enable-background="new 0 25 50 50" xml:space="preserve">
<path fill="#142328" d="M44.199,46.159h-4.344c0.314,1.229,0.502,2.513,0.502,3.841c0,8.483-6.875,15.359-15.357,15.359
	S9.643,58.482,9.643,50c0-1.328,0.188-2.612,0.504-3.841H5.8v21.12c0,1.06,0.86,1.918,1.922,1.918h34.555
	c1.062,0,1.922-0.858,1.922-1.918V46.159z M44.199,32.721c0-1.06-0.859-1.919-1.922-1.919H36.52c-1.061,0-1.92,0.86-1.92,1.919
	v5.761c0,1.06,0.859,1.919,1.92,1.919h5.758c1.062,0,1.922-0.86,1.922-1.919V32.721z M25,40.4c-5.302,0-9.599,4.297-9.599,9.599
	c0,5.301,4.297,9.6,9.599,9.6s9.601-4.299,9.601-9.6C34.6,44.697,30.301,40.4,25,40.4 M44.199,74.957H5.8
	c-3.179,0-5.758-2.578-5.758-5.762V30.8c0-3.18,2.579-5.758,5.758-5.758h38.399c3.18,0,5.758,2.578,5.758,5.758v38.395
	C49.959,72.379,47.379,74.957,44.199,74.957"/>
</svg>
