<?xml version="1.0" encoding="utf-8"?>
<!-- Generator: Adobe Illustrator 16.0.0, SVG Export Plug-In . SVG Version: 6.00 Build 0)  -->
<!DOCTYPE svg PUBLIC "-//W3C//DTD SVG 1.1//EN" "http://www.w3.org/Graphics/SVG/1.1/DTD/svg11.dtd">
<svg version="1.1" id="Layer_1" xmlns="http://www.w3.org/2000/svg" xmlns:xlink="http://www.w3.org/1999/xlink" x="0px" y="0px"
	 width="50px" height="50px" viewBox="0 25 50 50" enable-background="new 0 25 50 50" xml:space="preserve">
<path fill="#FF5000" d="M44.199,46.158h-4.344c0.314,1.229,0.502,2.514,0.502,3.841c0,8.483-6.875,15.358-15.357,15.358
	S9.643,58.482,9.643,49.999c0-1.327,0.188-2.612,0.504-3.841H5.8v21.119c0,1.059,0.86,1.918,1.922,1.918h34.555
	c1.062,0,1.922-0.859,1.922-1.918V46.158z M44.199,32.721c0-1.061-0.859-1.92-1.922-1.92H36.52c-1.061,0-1.92,0.859-1.92,1.92v5.76
	c0,1.062,0.859,1.92,1.92,1.92h5.758c1.062,0,1.922-0.858,1.922-1.92V32.721z M25,40.4c-5.302,0-9.599,4.297-9.599,9.599
	S19.698,59.6,25,59.6s9.601-4.299,9.601-9.601S30.301,40.4,25,40.4 M44.199,74.957H5.8c-3.179,0-5.758-2.578-5.758-5.762V30.801
	c0-3.18,2.579-5.758,5.758-5.758h38.399c3.18,0,5.758,2.579,5.758,5.758v38.395C49.959,72.379,47.379,74.957,44.199,74.957"/>
</svg>
