<?xml version="1.0" encoding="utf-8"?>
<!-- Generator: Adobe Illustrator 16.0.0, SVG Export Plug-In . SVG Version: 6.00 Build 0)  -->
<!DOCTYPE svg PUBLIC "-//W3C//DTD SVG 1.1//EN" "http://www.w3.org/Graphics/SVG/1.1/DTD/svg11.dtd">
<svg version="1.1" id="Layer_1" xmlns="http://www.w3.org/2000/svg" xmlns:xlink="http://www.w3.org/1999/xlink" x="0px" y="0px"
	 width="20px" height="20px" viewBox="-15 14.842 20 20" enable-background="new -15 14.842 20 20" xml:space="preserve">
<path fill="#FFFFFF" d="M0.934,21.77H0.489v-1.438c0-3.026-2.463-5.489-5.489-5.489s-5.489,2.463-5.489,5.489v1.438h-0.444
	c-0.854,0-1.546,0.691-1.546,1.546v7.979c0,0.855,0.692,1.547,1.547,1.547H0.934c0.854,0,1.546-0.691,1.546-1.547v-7.979
	C2.479,22.461,1.788,21.77,0.934,21.77z M-7.396,20.331c0-1.321,1.076-2.396,2.396-2.396s2.396,1.075,2.396,2.396v1.438h-4.792
	V20.331z M-4.472,27.148v1.742c0,0.294-0.236,0.529-0.528,0.529c-0.292,0-0.528-0.235-0.528-0.529v-1.742
	c-0.313-0.184-0.525-0.518-0.525-0.906c0-0.58,0.471-1.052,1.053-1.052s1.053,0.472,1.053,1.052
	C-3.947,26.63-4.159,26.965-4.472,27.148z"/>
</svg>
