<?xml version="1.0" encoding="utf-8"?>
<!-- Generator: Adobe Illustrator 16.0.0, SVG Export Plug-In . SVG Version: 6.00 Build 0)  -->
<!DOCTYPE svg PUBLIC "-//W3C//DTD SVG 1.1//EN" "http://www.w3.org/Graphics/SVG/1.1/DTD/svg11.dtd">
<svg version="1.1" id="Layer_1" xmlns="http://www.w3.org/2000/svg" xmlns:xlink="http://www.w3.org/1999/xlink" x="0px" y="0px"
	 width="50px" height="50px" viewBox="0 0 50 50" enable-background="new 0 0 50 50" xml:space="preserve">
<path fill="#142328" d="M40.268,19.508h-1.144v-3.699c0-7.788-6.336-14.125-14.124-14.125S10.875,8.021,10.875,15.809v3.699H9.733
	c-2.197,0-3.979,1.781-3.979,3.979V44.02c0,2.198,1.782,3.979,3.98,3.979h30.534c2.196,0,3.979-1.781,3.979-3.979V23.487
	C44.246,21.289,42.465,19.508,40.268,19.508z M18.834,15.809c0-3.4,2.766-6.166,6.166-6.166c3.399,0,6.165,2.766,6.165,6.166v3.699
	H18.834V15.809z M26.359,33.348v4.488c0,0.752-0.607,1.361-1.359,1.361c-0.751,0-1.359-0.609-1.359-1.361v-4.488
	c-0.803-0.47-1.349-1.33-1.349-2.328c0-1.496,1.212-2.709,2.708-2.709s2.708,1.213,2.708,2.709
	C27.708,32.016,27.163,32.878,26.359,33.348z"/>
</svg>
