<?xml version="1.0" encoding="utf-8"?>
<!-- Generator: Adobe Illustrator 16.0.0, SVG Export Plug-In . SVG Version: 6.00 Build 0)  -->
<!DOCTYPE svg PUBLIC "-//W3C//DTD SVG 1.1//EN" "http://www.w3.org/Graphics/SVG/1.1/DTD/svg11.dtd">
<svg version="1.1" id="Layer_1" xmlns="http://www.w3.org/2000/svg" xmlns:xlink="http://www.w3.org/1999/xlink" x="0px" y="0px"
	 width="49.045px" height="27.008px" viewBox="0 0 49.045 27.008" enable-background="new 0 0 49.045 27.008" xml:space="preserve">
<path d="M3.788,20.611c-0.272,0.547-0.864,0.893-1.628,0.893c-0.763,0-1.354-0.346-1.628-0.893c-0.201-0.403-0.244-0.764-0.244-1.67
	V9.261c0-0.907,0.043-1.267,0.244-1.671C0.806,7.043,1.397,6.697,2.16,6.697c0.764,0,1.355,0.346,1.628,0.893
	c0.201,0.404,0.244,0.764,0.244,1.671v9.681C4.032,19.848,3.989,20.208,3.788,20.611 M2.16,0c1.196,0,2.161,0.964,2.161,2.16
	c0,1.196-0.965,2.161-2.161,2.161C0.965,4.321,0,3.356,0,2.16C0,0.964,0.965,0,2.16,0"/>
<path d="M17.169,6.928c0.504,0.201,0.964,0.489,1.195,0.734c0.289,0.317,0.389,0.619,0.389,1.052c0,0.418-0.23,0.893-0.488,1.152
	c-0.305,0.303-0.62,0.447-1.052,0.447c-0.304,0-0.691-0.131-1.096-0.317c-0.907-0.418-1.844-0.749-2.909-0.749
	c-1.455,0-2.118,0.705-2.118,1.484c0,0.878,0.562,1.224,1.557,1.31l2.348,0.23c2.966,0.274,4.479,1.844,4.479,4.393
	c0,3.314-2.822,4.898-6.352,4.898c-2.363,0-3.861-0.436-5.2-1.34c-0.519-0.348-0.907-0.838-0.907-1.441
	c0-0.504,0.23-0.979,0.604-1.281c0.318-0.259,0.604-0.373,0.995-0.373c0.359,0,0.748,0.143,1.238,0.43
	c1.021,0.605,1.944,0.881,3.326,0.881c1.384,0,2.651-0.489,2.651-1.613c0-0.734-0.403-1.282-1.585-1.396l-2.362-0.217
	c-2.708-0.259-4.407-1.469-4.407-4.234c0-3.111,2.752-4.768,5.819-4.768C14.821,6.207,16.017,6.452,17.169,6.928"/>
<path d="M31.56,6.943c0.85,0.433,1.812,1.153,1.812,2.117c0,0.476-0.186,0.864-0.531,1.226c-0.261,0.273-0.706,0.489-1.152,0.489
	c-0.434,0-0.765-0.13-1.295-0.518c-0.605-0.433-1.098-0.649-1.802-0.649c-0.866,0.014-1.587,0.331-2.116,0.979
	c-0.578,0.72-0.836,1.713-0.836,3.283c0,1.569,0.258,2.594,0.836,3.313c0.545,0.662,1.225,0.979,2.116,0.979
	c0.704,0,1.194-0.188,1.802-0.633c0.504-0.375,0.861-0.547,1.295-0.547c0.446,0,0.894,0.229,1.152,0.504
	c0.346,0.345,0.531,0.748,0.531,1.224c0,0.951-0.951,1.657-1.812,2.133c-0.879,0.476-1.759,0.72-2.968,0.72
	c-2.997,0-6.698-1.611-6.698-7.69c0-6.078,3.714-7.663,6.725-7.663C29.83,6.208,30.692,6.439,31.56,6.943"/>
<path d="M42.794,9.609c-2.277,0-2.564,1.886-2.564,4.291c0,2.407,0.287,4.262,2.535,4.262c2.246,0,2.535-1.855,2.535-4.262
	C45.3,11.495,45.011,9.609,42.794,9.609 M36.483,8.816c0-0.965,0.043-1.253,0.273-1.686c0.273-0.518,0.906-0.864,1.613-0.864
	c0.504,0,0.904,0.16,1.193,0.433c0.287,0.26,0.435,0.575,0.547,1.066c1.021-1.138,2.134-1.556,3.73-1.556
	c1.469,0,2.809,0.49,3.645,1.354c1.439,1.469,1.558,3.803,1.558,6.337c0,2.506-0.114,4.84-1.558,6.309
	c-0.836,0.863-2.133,1.355-3.631,1.355c-1.524,0-2.678-0.404-3.629-1.5v4.379c0,0.906-0.045,1.268-0.246,1.672
	c-0.271,0.547-0.861,0.893-1.627,0.893c-0.763,0-1.354-0.346-1.627-0.893c-0.201-0.404-0.246-0.766-0.246-1.672V8.816H36.483z"/>
</svg>
