<?xml version="1.0" encoding="utf-8"?>
<!-- Generator: Adobe Illustrator 16.0.0, SVG Export Plug-In . SVG Version: 6.00 Build 0)  -->
<!DOCTYPE svg PUBLIC "-//W3C//DTD SVG 1.1//EN" "http://www.w3.org/Graphics/SVG/1.1/DTD/svg11.dtd">
<svg version="1.1" id="Layer_1" xmlns="http://www.w3.org/2000/svg" xmlns:xlink="http://www.w3.org/1999/xlink" x="0px" y="0px"
	 width="49.045px" height="27.008px" viewBox="0 0 49.045 27.008" enable-background="new 0 0 49.045 27.008" xml:space="preserve">
<path fill="#FF5000" d="M3.788,20.611c-0.272,0.547-0.864,0.893-1.628,0.893c-0.763,0-1.354-0.346-1.628-0.893
	c-0.201-0.403-0.244-0.764-0.244-1.67v-9.68c0-0.907,0.043-1.267,0.244-1.671C0.806,7.043,1.397,6.697,2.16,6.697
	c0.764,0,1.355,0.346,1.628,0.893c0.201,0.404,0.244,0.764,0.244,1.671v9.68C4.032,19.848,3.989,20.208,3.788,20.611 M2.16,0
	c1.196,0,2.161,0.964,2.161,2.16c0,1.196-0.965,2.161-2.161,2.161C0.965,4.321,0,3.356,0,2.16C0,0.964,0.965,0,2.16,0"/>
<path fill="#FF5000" d="M17.169,6.928c0.504,0.201,0.964,0.489,1.195,0.734c0.289,0.317,0.389,0.619,0.389,1.052
	c0,0.418-0.23,0.893-0.488,1.152c-0.305,0.303-0.62,0.447-1.052,0.447c-0.304,0-0.691-0.131-1.096-0.317
	c-0.907-0.418-1.844-0.749-2.909-0.749c-1.455,0-2.118,0.705-2.118,1.484c0,0.878,0.562,1.224,1.557,1.31l2.348,0.23
	c2.966,0.274,4.479,1.844,4.479,4.393c0,3.314-2.822,4.898-6.352,4.898c-2.363,0-3.861-0.434-5.2-1.34
	c-0.519-0.346-0.907-0.836-0.907-1.441c0-0.504,0.23-0.979,0.604-1.281c0.318-0.259,0.604-0.373,0.995-0.373
	c0.359,0,0.748,0.143,1.238,0.43c1.021,0.605,1.944,0.88,3.326,0.88c1.384,0,2.651-0.49,2.651-1.614
	c0-0.734-0.403-1.282-1.585-1.396l-2.362-0.217c-2.708-0.259-4.407-1.469-4.407-4.234c0-3.111,2.752-4.768,5.819-4.768
	C14.821,6.207,16.017,6.452,17.169,6.928"/>
<path fill="#FF5000" d="M31.559,6.943c0.849,0.433,1.813,1.153,1.813,2.117c0,0.476-0.186,0.864-0.531,1.226
	c-0.261,0.273-0.706,0.489-1.153,0.489c-0.433,0-0.764-0.13-1.295-0.518c-0.606-0.433-1.097-0.649-1.801-0.649
	c-0.866,0.014-1.587,0.331-2.117,0.979c-0.577,0.72-0.836,1.713-0.836,3.283c0,1.57,0.259,2.594,0.836,3.314
	c0.546,0.662,1.224,0.978,2.117,0.978c0.704,0,1.194-0.187,1.801-0.633c0.504-0.374,0.862-0.547,1.295-0.547
	c0.447,0,0.893,0.231,1.153,0.504c0.346,0.345,0.531,0.749,0.531,1.224c0,0.951-0.951,1.657-1.813,2.133
	c-0.879,0.475-1.758,0.719-2.967,0.719c-2.997,0-6.698-1.612-6.698-7.691c0-6.078,3.715-7.663,6.725-7.663
	C29.83,6.208,30.693,6.439,31.559,6.943"/>
<path fill="#FF5000" d="M42.794,9.609c-2.277,0-2.565,1.886-2.565,4.291c0,2.406,0.288,4.262,2.535,4.262S45.3,16.306,45.3,13.9
	C45.3,11.495,45.011,9.609,42.794,9.609 M36.483,8.816c0-0.965,0.044-1.253,0.275-1.686c0.273-0.518,0.906-0.864,1.613-0.864
	c0.504,0,0.905,0.16,1.194,0.433c0.287,0.26,0.434,0.575,0.548,1.066c1.021-1.138,2.132-1.556,3.73-1.556
	c1.468,0,2.808,0.49,3.644,1.354c1.44,1.469,1.557,3.803,1.557,6.337c0,2.506-0.116,4.84-1.557,6.309
	c-0.836,0.863-2.132,1.355-3.63,1.355c-1.526,0-2.679-0.404-3.63-1.5v4.379c0,0.907-0.044,1.268-0.245,1.672
	c-0.272,0.547-0.863,0.893-1.628,0.893c-0.762,0-1.354-0.346-1.627-0.893c-0.201-0.404-0.245-0.765-0.245-1.672V8.816z"/>
</svg>
