<?xml version="1.0" encoding="utf-8"?>
<!-- Generator: Adobe Illustrator 16.0.0, SVG Export Plug-In . SVG Version: 6.00 Build 0)  -->
<!DOCTYPE svg PUBLIC "-//W3C//DTD SVG 1.1//EN" "http://www.w3.org/Graphics/SVG/1.1/DTD/svg11.dtd">
<svg version="1.1" id="Layer_1" xmlns="http://www.w3.org/2000/svg" xmlns:xlink="http://www.w3.org/1999/xlink" x="0px" y="0px"
	 width="50px" height="50px" viewBox="0 0 50 50" enable-background="new 0 0 50 50" xml:space="preserve">
<g>
	<circle fill="#FF5000" cx="25" cy="25" r="25"/>
	<g>
		<path fill="#FFFFFF" d="M12.44,29.305c-0.165,0.332-0.523,0.542-0.986,0.542c-0.462,0-0.82-0.21-0.986-0.542
			c-0.122-0.244-0.147-0.462-0.147-1.011v-5.865c0-0.549,0.026-0.767,0.147-1.012c0.166-0.331,0.524-0.541,0.986-0.541
			c0.463,0,0.821,0.21,0.986,0.541c0.122,0.245,0.148,0.462,0.148,1.012v5.865C12.588,28.843,12.562,29.061,12.44,29.305
			 M11.454,16.82c0.724,0,1.309,0.583,1.309,1.309c0,0.724-0.585,1.309-1.309,1.309c-0.724,0-1.309-0.584-1.309-1.309
			C10.145,17.403,10.73,16.82,11.454,16.82"/>
		<path fill="#FFFFFF" d="M20.546,21.017c0.305,0.122,0.583,0.296,0.724,0.445c0.175,0.191,0.236,0.375,0.236,0.637
			c0,0.253-0.14,0.541-0.295,0.698c-0.186,0.184-0.376,0.271-0.638,0.271c-0.184,0-0.418-0.08-0.664-0.192
			c-0.55-0.253-1.117-0.454-1.763-0.454c-0.881,0-1.283,0.427-1.283,0.899c0,0.531,0.341,0.741,0.943,0.793l1.422,0.139
			c1.797,0.166,2.713,1.117,2.713,2.661c0,2.008-1.709,2.967-3.848,2.967c-1.432,0-2.339-0.262-3.15-0.811
			c-0.314-0.21-0.549-0.508-0.549-0.874c0-0.305,0.139-0.593,0.366-0.776c0.193-0.156,0.366-0.227,0.602-0.227
			c0.218,0,0.454,0.088,0.75,0.261c0.619,0.368,1.178,0.534,2.015,0.534c0.838,0,1.605-0.296,1.605-0.978
			c0-0.444-0.244-0.776-0.96-0.846l-1.431-0.131c-1.641-0.157-2.669-0.89-2.669-2.565c0-1.884,1.667-2.888,3.524-2.888
			C19.124,20.58,19.848,20.729,20.546,21.017"/>
		<path fill="#FFFFFF" d="M29.263,21.025c0.516,0.262,1.099,0.699,1.099,1.283c0,0.288-0.112,0.523-0.322,0.743
			c-0.158,0.166-0.426,0.296-0.698,0.296c-0.262,0-0.462-0.079-0.785-0.314c-0.366-0.262-0.664-0.393-1.09-0.393
			c-0.526,0.008-0.962,0.2-1.283,0.593c-0.35,0.436-0.506,1.038-0.506,1.989c0,0.951,0.156,1.571,0.506,2.008
			c0.331,0.4,0.742,0.592,1.283,0.592c0.426,0,0.723-0.114,1.09-0.384c0.306-0.226,0.522-0.33,0.785-0.33
			c0.272,0,0.541,0.138,0.698,0.304c0.21,0.21,0.322,0.454,0.322,0.742c0,0.576-0.576,1.002-1.099,1.292
			c-0.532,0.286-1.064,0.435-1.797,0.435c-1.816,0-4.058-0.977-4.058-4.659c0-3.682,2.25-4.642,4.074-4.642
			C28.216,20.58,28.737,20.72,29.263,21.025"/>
		<path fill="#FFFFFF" d="M36.069,22.641c-1.38,0-1.554,1.143-1.554,2.6c0,1.458,0.174,2.582,1.536,2.582
			c1.361,0,1.535-1.125,1.535-2.582C37.586,23.783,37.412,22.641,36.069,22.641 M32.246,22.16c0-0.584,0.026-0.758,0.166-1.021
			c0.166-0.313,0.55-0.523,0.978-0.523c0.305,0,0.547,0.097,0.723,0.263c0.174,0.157,0.262,0.348,0.331,0.646
			c0.62-0.689,1.292-0.942,2.261-0.942c0.89,0,1.701,0.297,2.207,0.82c0.873,0.89,0.944,2.304,0.944,3.839
			c0,1.518-0.07,2.932-0.944,3.822c-0.506,0.522-1.291,0.82-2.199,0.82c-0.925,0-1.623-0.244-2.199-0.908v2.653
			c0,0.549-0.026,0.767-0.148,1.013c-0.165,0.33-0.522,0.54-0.986,0.54c-0.46,0-0.82-0.21-0.985-0.54
			c-0.122-0.246-0.149-0.464-0.149-1.013V22.16H32.246z"/>
	</g>
</g>
</svg>
