<?xml version="1.0" encoding="utf-8"?>
<!-- Generator: Adobe Illustrator 16.0.0, SVG Export Plug-In . SVG Version: 6.00 Build 0)  -->
<!DOCTYPE svg PUBLIC "-//W3C//DTD SVG 1.1//EN" "http://www.w3.org/Graphics/SVG/1.1/DTD/svg11.dtd">
<svg version="1.1" id="Layer_1" xmlns="http://www.w3.org/2000/svg" xmlns:xlink="http://www.w3.org/1999/xlink" x="0px" y="0px"
	 width="50px" height="100px" viewBox="0 -25 50 100" enable-background="new 0 -25 50 100" xml:space="preserve">
<g>
	<g>
		<path fill="#FF5000" d="M43.75,18.75H6.25C2.798,18.75,0,15.952,0,12.5s2.798-6.25,6.25-6.25h37.5c3.452,0,6.25,2.798,6.25,6.25
			S47.202,18.75,43.75,18.75z"/>
	</g>
	<g>
		<path fill="#FF5000" d="M43.75-6.25H6.25C2.798-6.25,0-9.048,0-12.5s2.798-6.25,6.25-6.25h37.5c3.452,0,6.25,2.798,6.25,6.25
			S47.202-6.25,43.75-6.25z"/>
	</g>
</g>
<g>
	<g>
		<g>
			<path fill="#FF5000" d="M42.678,41.161L16.161,67.678c-2.441,2.441-6.398,2.441-8.839,0c-2.441-2.441-2.441-6.396,0-8.839
				l26.517-26.518c2.44-2.44,6.397-2.44,8.839,0C45.119,34.763,45.119,38.72,42.678,41.161z"/>
		</g>
	</g>
	<g>
		<g>
			<path fill="#FF5000" d="M16.161,32.321l26.517,26.518c2.441,2.44,2.441,6.397,0,8.839s-6.396,2.441-8.839,0L7.322,41.161
				c-2.441-2.441-2.441-6.396,0-8.84C9.763,29.881,13.72,29.881,16.161,32.321z"/>
		</g>
	</g>
</g>
</svg>
