<?xml version="1.0" encoding="utf-8"?>
<!-- Generator: Adobe Illustrator 16.0.0, SVG Export Plug-In . SVG Version: 6.00 Build 0)  -->
<!DOCTYPE svg PUBLIC "-//W3C//DTD SVG 1.1//EN" "http://www.w3.org/Graphics/SVG/1.1/DTD/svg11.dtd">
<svg version="1.1" id="Layer_1" xmlns="http://www.w3.org/2000/svg" xmlns:xlink="http://www.w3.org/1999/xlink" x="0px" y="0px"
	 width="50px" height="100px" viewBox="0 0 50 100" enable-background="new 0 0 50 100" xml:space="preserve">
<g id="Layer_2">
</g>
<g>
	<g>
		<g>
			<path fill="#FFFFFF" d="M46.021,16.479H3.979C1.781,16.479,0,14.698,0,12.5s1.781-3.979,3.979-3.979h42.041
				C48.219,8.521,50,10.302,50,12.5S48.219,16.479,46.021,16.479z"/>
		</g>
		<g>
			<path fill="#FFFFFF" d="M46.021,41.479H3.979C1.781,41.479,0,39.698,0,37.5s1.781-3.979,3.979-3.979h42.041
				c2.198,0,3.979,1.782,3.979,3.979S48.219,41.479,46.021,41.479z"/>
		</g>
	</g>
</g>
<g>
	<path fill="#FFFFFF" d="M12.5,54.25c-4.549,0-8.25,3.701-8.25,8.25s3.701,8.25,8.25,8.25s8.25-3.701,8.25-8.25
		S17.049,54.25,12.5,54.25z"/>
	<path fill="#FFFFFF" d="M37.5,70.75c4.549,0,8.25-3.701,8.25-8.25s-3.701-8.25-8.25-8.25s-8.25,3.701-8.25,8.25
		S32.951,70.75,37.5,70.75z"/>
	<path fill="#FFFFFF" d="M37.5,79.25c-4.549,0-8.25,3.701-8.25,8.25s3.701,8.25,8.25,8.25s8.25-3.701,8.25-8.25
		S42.049,79.25,37.5,79.25z"/>
	<path fill="#FFFFFF" d="M12.5,79.25c-4.549,0-8.25,3.701-8.25,8.25s3.701,8.25,8.25,8.25s8.25-3.701,8.25-8.25
		S17.049,79.25,12.5,79.25z"/>
</g>
</svg>
