<?xml version="1.0" encoding="utf-8"?>
<!-- Generator: Adobe Illustrator 16.0.0, SVG Export Plug-In . SVG Version: 6.00 Build 0)  -->
<!DOCTYPE svg PUBLIC "-//W3C//DTD SVG 1.1//EN" "http://www.w3.org/Graphics/SVG/1.1/DTD/svg11.dtd">
<svg version="1.1" id="Layer_1" xmlns="http://www.w3.org/2000/svg" xmlns:xlink="http://www.w3.org/1999/xlink" x="0px" y="0px"
	 width="50px" height="100px" viewBox="0 0 50 100" enable-background="new 0 0 50 100" xml:space="preserve">
<g id="Layer_2">
</g>
<g id="Layer_1_1_">
	<g>
		<g>
			<path fill="#FFFFFF" d="M46.646,8.757H3.332c-1.794,0-3.249-1.455-3.249-3.249s1.455-3.249,3.249-3.249h43.314
				c1.793,0,3.25,1.455,3.25,3.249S48.439,8.757,46.646,8.757z"/>
		</g>
		<g>
			<path fill="#FFFFFF" d="M46.646,21.752H3.332c-1.794,0-3.249-1.456-3.249-3.249s1.455-3.25,3.249-3.25h43.314
				c1.793,0,3.25,1.456,3.25,3.25C49.896,20.296,48.439,21.752,46.646,21.752z"/>
		</g>
		<g>
			<path fill="#FFFFFF" d="M46.646,34.747H3.332c-1.794,0-3.249-1.456-3.249-3.25c0-1.792,1.455-3.25,3.249-3.25h43.314
				c1.793,0,3.25,1.458,3.25,3.25C49.896,33.291,48.439,34.747,46.646,34.747z"/>
		</g>
		<g>
			<path fill="#FFFFFF" d="M46.646,47.74H3.332c-1.794,0-3.249-1.455-3.249-3.247c0-1.795,1.455-3.25,3.249-3.25h43.314
				c1.793,0,3.25,1.455,3.25,3.25C49.896,46.285,48.439,47.74,46.646,47.74z"/>
		</g>
	</g>
	<g>
		<path fill="#FFFFFF" d="M18.625,50H1.3C0.582,50,0,50.582,0,51.3v17.401C0,69.418,0.582,70,1.3,70h17.325
			c0.718,0,1.3-0.582,1.3-1.299V51.3C19.925,50.582,19.343,50,18.625,50z"/>
		<path fill="#FFFFFF" d="M48.699,50H31.375c-0.719,0-1.301,0.582-1.301,1.3v17.401c0,0.717,0.582,1.299,1.301,1.299h17.324
			C49.418,70,50,69.418,50,68.701V51.3C50,50.582,49.418,50,48.699,50z"/>
		<path fill="#FFFFFF" d="M48.699,80H31.375c-0.719,0-1.301,0.582-1.301,1.3v17.401c0,0.717,0.582,1.299,1.301,1.299h17.324
			C49.418,100,50,99.418,50,98.701V81.3C50,80.582,49.418,80,48.699,80z"/>
		<path fill="#FFFFFF" d="M18.625,80H1.3C0.582,80,0,80.582,0,81.3v17.401C0,99.418,0.582,100,1.3,100h17.325
			c0.718,0,1.3-0.582,1.3-1.299V81.3C19.925,80.582,19.343,80,18.625,80z"/>
	</g>
</g>
</svg>
