<?xml version="1.0" encoding="utf-8"?>
<!-- Generator: Adobe Illustrator 16.0.0, SVG Export Plug-In . SVG Version: 6.00 Build 0)  -->
<!DOCTYPE svg PUBLIC "-//W3C//DTD SVG 1.1//EN" "http://www.w3.org/Graphics/SVG/1.1/DTD/svg11.dtd">
<svg version="1.1" id="Layer_1" xmlns="http://www.w3.org/2000/svg" xmlns:xlink="http://www.w3.org/1999/xlink" x="0px" y="0px"
	 width="50px" height="100px" viewBox="0 0 50 100" enable-background="new 0 0 50 100" xml:space="preserve">
<g id="Layer_2">
</g>
<g>
	<g>
		<g>
			<path fill="#FF5000" d="M43.75,43.75H6.25C2.798,43.75,0,40.952,0,37.5s2.798-6.25,6.25-6.25h37.5c3.452,0,6.25,2.798,6.25,6.25
				S47.202,43.75,43.75,43.75z"/>
		</g>
		<g>
			<path fill="#FF5000" d="M43.75,18.75H6.25C2.798,18.75,0,15.952,0,12.5s2.798-6.25,6.25-6.25h37.5c3.452,0,6.25,2.798,6.25,6.25
				S47.202,18.75,43.75,18.75z"/>
		</g>
	</g>
</g>
<g>
	<g>
		<circle fill="#FF5000" cx="12.5" cy="62.5" r="6.25"/>
	</g>
	<g>
		<circle fill="#FF5000" cx="37.5" cy="62.5" r="6.25"/>
	</g>
	<g>
		<circle fill="#FF5000" cx="37.5" cy="87.5" r="6.25"/>
	</g>
	<g>
		<circle fill="#FF5000" cx="12.5" cy="87.5" r="6.25"/>
	</g>
</g>
</svg>
