<?xml version="1.0" encoding="UTF-8"?>
<svg xmlns="http://www.w3.org/2000/svg" version="1.1" viewBox="0 0 50 50">
  <defs>
    <style>
      .cls-1 {
        fill: #fff;
      }

      .cls-2 {
        fill: #ff5000;
      }
    </style>
  </defs>
  <!-- Generator: Adobe Illustrator 28.7.1, SVG Export Plug-In . SVG Version: 1.2.0 Build 142)  -->
  <g>
    <g id="Layer_1">
      <rect class="cls-2" x=".3" y=".3" width="49.4" height="49.4" rx="5" ry="5"/>
      <path class="cls-1" d="M42.7,17.3c-.2,3.6-2.7,8.6-7.6,14.9-5.1,6.6-9.4,9.9-12.9,9.9s-4-2-5.5-6l-3-11.1c-1.1-4-2.3-6-3.6-6s-1.3.6-2.9,1.8l-1.8-2.3,5.4-4.9c2.5-2.1,4.3-3.2,5.5-3.3,2.9-.3,4.7,1.7,5.4,6l1.5,8.5c.8,3.8,1.8,5.7,2.8,5.7s2-1.2,3.5-3.7,2.4-4.3,2.5-5.6c.2-2.1-.6-3.2-2.5-3.2s-1.8.2-2.8.6c1.8-6,5.4-8.9,10.5-8.7,3.9.1,5.7,2.6,5.4,7.5h0Z"/>
    </g>
  </g>
</svg>