<?xml version="1.0" encoding="utf-8"?>
<!-- Generator: Adobe Illustrator 16.0.0, SVG Export Plug-In . SVG Version: 6.00 Build 0)  -->
<!DOCTYPE svg PUBLIC "-//W3C//DTD SVG 1.1//EN" "http://www.w3.org/Graphics/SVG/1.1/DTD/svg11.dtd">
<svg version="1.1" id="Layer_1" xmlns="http://www.w3.org/2000/svg" xmlns:xlink="http://www.w3.org/1999/xlink" x="0px" y="0px"
	 width="50px" height="100px" viewBox="0 50 50 100" enable-background="new 0 50 50 100" xml:space="preserve">
<path fill="#FFFFFF" d="M43.749,71.752H28.25l0.001-15.5c0-1.793-1.459-3.25-3.251-3.252c-0.868,0.002-1.685,0.341-2.298,0.955
	c-0.614,0.614-0.952,1.43-0.952,2.296l0.001,15.496L6.249,71.747c-0.869,0-1.686,0.339-2.299,0.952
	c-0.614,0.614-0.952,1.43-0.951,2.299c-0.001,1.792,1.458,3.249,3.251,3.25h15.499l-0.001,15.5C21.749,95.541,23.207,96.998,25,97
	c0.867-0.002,1.685-0.342,2.298-0.955c0.614-0.613,0.951-1.43,0.952-2.295l-0.001-15.496H43.75c0.868,0,1.687-0.338,2.299-0.951
	c0.614-0.614,0.952-1.43,0.952-2.298C47.001,73.212,45.544,71.754,43.749,71.752z"/>
<g>
	<path fill="#FFFFFF" d="M43.75,128.254c0.868,0,1.687-0.339,2.299-0.952c0.614-0.614,0.952-1.43,0.952-2.298
		c0-1.792-1.457-3.25-3.252-3.252l-37.5-0.006c-0.869,0-1.686,0.339-2.299,0.952c-0.614,0.614-0.952,1.43-0.951,2.299
		c-0.001,1.792,1.458,3.249,3.251,3.251L43.75,128.254z"/>
</g>
</svg>
