<?xml version="1.0" encoding="utf-8"?>
<!-- Generator: Adobe Illustrator 16.0.0, SVG Export Plug-In . SVG Version: 6.00 Build 0)  -->
<!DOCTYPE svg PUBLIC "-//W3C//DTD SVG 1.1//EN" "http://www.w3.org/Graphics/SVG/1.1/DTD/svg11.dtd">
<svg version="1.1" id="Layer_1" xmlns="http://www.w3.org/2000/svg" xmlns:xlink="http://www.w3.org/1999/xlink" x="0px" y="0px"
	 width="50px" height="100px" viewBox="0 0 50 100" enable-background="new 0 0 50 100" xml:space="preserve">
<path fill="#FF5000" d="M42.044,22.048h-14.09l0.001-14.09c0-1.63-1.326-2.955-2.955-2.956c-0.789,0.001-1.532,0.31-2.089,0.868
	c-0.559,0.558-0.866,1.3-0.866,2.087l0.001,14.087L7.955,22.042c-0.79,0-1.533,0.308-2.09,0.866C5.306,23.466,4.999,24.208,5,24.998
	c-0.001,1.628,1.325,2.953,2.955,2.955h14.09l-0.001,14.09c0.001,1.63,1.326,2.955,2.956,2.956c0.788-0.001,1.531-0.311,2.089-0.868
	c0.559-0.558,0.864-1.3,0.865-2.086l-0.001-14.087h14.092c0.789,0,1.533-0.307,2.09-0.865c0.558-0.558,0.865-1.3,0.865-2.089
	C45,23.375,43.676,22.05,42.044,22.048z"/>
<g>
	<path fill="#FF5000" d="M42.045,77.958c0.789,0,1.533-0.308,2.09-0.865c0.558-0.559,0.865-1.3,0.865-2.089
		c0-1.629-1.324-2.955-2.956-2.957L7.955,72.042c-0.79,0-1.533,0.308-2.09,0.865c-0.559,0.559-0.866,1.3-0.865,2.09
		c-0.001,1.629,1.325,2.954,2.955,2.956L42.045,77.958z"/>
</g>
</svg>
