<?xml version="1.0" encoding="utf-8"?>
<!-- Generator: Adobe Illustrator 16.0.0, SVG Export Plug-In . SVG Version: 6.00 Build 0)  -->
<!DOCTYPE svg PUBLIC "-//W3C//DTD SVG 1.1//EN" "http://www.w3.org/Graphics/SVG/1.1/DTD/svg11.dtd">
<svg version="1.1" id="Layer_1" xmlns="http://www.w3.org/2000/svg" xmlns:xlink="http://www.w3.org/1999/xlink" x="0px" y="0px"
	 width="50px" height="100px" viewBox="0 0 50 100" enable-background="new 0 0 50 100" xml:space="preserve">
<g>
	<g>
		<g>
			<path fill="#142328" d="M6.25,68.75h37.5c3.452,0,6.25,2.798,6.25,6.25s-2.798,6.25-6.25,6.25H6.25C2.798,81.25,0,78.452,0,75
				S2.798,68.75,6.25,68.75z"/>
		</g>
	</g>
</g>
<g>
	<g>
		<g>
			<g>
				<path fill="#142328" d="M18.75,43.75V6.25C18.749,2.798,21.547,0,25,0c3.452-0.001,6.249,2.796,6.25,6.25v37.5
					c0,3.452-2.797,6.25-6.25,6.25C21.547,50,18.749,47.202,18.75,43.75z"/>
			</g>
		</g>
		<g>
			<g>
				<path fill="#142328" d="M43.75,31.25H6.25C2.798,31.251,0,28.453,0,25c-0.001-3.454,2.796-6.249,6.25-6.25h37.5
					C47.201,18.749,50,21.546,50,25C50,28.452,47.201,31.25,43.75,31.25z"/>
			</g>
		</g>
	</g>
</g>
</svg>
