<?xml version="1.0" standalone="no"?>
<!DOCTYPE svg PUBLIC "-//W3C//DTD SVG 20010904//EN"
 "http://www.w3.org/TR/2001/REC-SVG-20010904/DTD/svg10.dtd">
<svg version="1.0" xmlns="http://www.w3.org/2000/svg"
 width="700.000000pt" height="700.000000pt" viewBox="0 0 700.000000 700.000000"
 preserveAspectRatio="xMidYMid meet">
<metadata>
Created by potrace 1.11, written by Peter Selinger 2001-2013
</metadata>
<g transform="translate(0.000000,700.000000) scale(0.100000,-0.100000)"
fill="#000000" stroke="none">
<path d="M3290 6994 c-19 -2 -87 -9 -150 -15 -647 -61 -1294 -326 -1825 -746
-141 -111 -437 -407 -548 -548 -413 -521 -662 -1120 -744 -1785 -24 -200 -24
-600 0 -800 82 -665 331 -1264 744 -1785 111 -141 407 -437 548 -548 521 -413
1120 -662 1785 -744 200 -24 600 -24 800 0 665 82 1264 331 1785 744 141 111
437 407 548 548 413 521 662 1120 744 1785 24 200 24 600 0 800 -82 665 -331
1264 -744 1785 -111 141 -407 437 -548 548 -518 410 -1123 663 -1775 742 -126
15 -542 28 -620 19z"/>
</g>
</svg>
